<?xml version="1.0" encoding="utf-8"?>
<!-- Generator: Adobe Illustrator 24.0.1, SVG Export Plug-In . SVG Version: 6.00 Build 0)  -->
<svg version="1.1"
	 id="svg11357" xmlns:cc="http://creativecommons.org/ns#" xmlns:dc="http://purl.org/dc/elements/1.1/" xmlns:inkscape="http://www.inkscape.org/namespaces/inkscape" xmlns:rdf="http://www.w3.org/1999/02/22-rdf-syntax-ns#" xmlns:sodipodi="http://sodipodi.sourceforge.net/DTD/sodipodi-0.dtd" xmlns:svg="http://www.w3.org/2000/svg"
	 xmlns="http://www.w3.org/2000/svg" xmlns:xlink="http://www.w3.org/1999/xlink" x="0px" y="0px" viewBox="0 0 1076.3 335.3"
	 style="enable-background:new 0 0 1076.3 335.3;" xml:space="preserve">
<style type="text/css">
	.st0{fill:url(#rect11365_1_);stroke:#000000;stroke-width:1.8641;stroke-miterlimit:9.3207;}
	.st1{fill:url(#rect11365-3_1_);stroke:#000000;stroke-width:1.8641;stroke-miterlimit:9.3207;}
	.st2{fill:url(#path12156_1_);stroke:#000000;stroke-width:1.8641;stroke-miterlimit:9.3207;}
	.st3{fill:url(#path12162_1_);stroke:#000000;stroke-width:1.8641;stroke-miterlimit:9.3207;}
	.st4{fill:url(#path12166_1_);stroke:#000000;stroke-width:1.8641;stroke-miterlimit:9.3207;}
	.st5{fill:#289AF9;stroke:#000000;stroke-width:0.9321;stroke-miterlimit:9.3207;}
	.st6{fill:#AA6E00;stroke:#000000;stroke-width:0.9321;stroke-miterlimit:9.3207;}
	.st7{fill:#FFB533;stroke:#000000;stroke-width:0.9321;stroke-miterlimit:9.3207;}
	.st8{fill:#DFA300;stroke:#000000;stroke-width:0.9321;stroke-miterlimit:9.3207;}
	.st9{fill:url(#path12371_1_);stroke:#000000;stroke-width:1.8641;stroke-miterlimit:9.3207;}
	.st10{fill:none;stroke:#000000;stroke-width:0.9321;stroke-miterlimit:3.4751;}
	.st11{fill:none;stroke:#000000;stroke-width:0.9321;stroke-miterlimit:9.3207;}
	.st12{fill:none;stroke:#000000;stroke-miterlimit:3.7283;}
	.st13{fill:none;stroke:#000000;stroke-miterlimit:10;}
	.st14{font-family:'RigidSquare-Italic';}
	.st15{font-size:52px;}
	.st16{fill:#A7A9AC;}
	.st17{clip-path:url(#SVGID_2_);fill:#086FA1;}
</style>
<sodipodi:namedview  bordercolor="#666666" borderopacity="1.0" fit-margin-bottom="1" fit-margin-left="1" fit-margin-right="1" fit-margin-top="1" id="base" inkscape:current-layer="g12263" inkscape:cx="476.53276" inkscape:cy="33.448164" inkscape:document-units="px" inkscape:guide-bbox="true" inkscape:pageopacity="0.0" inkscape:pageshadow="2" inkscape:window-height="987" inkscape:window-maximized="1" inkscape:window-width="1680" inkscape:window-x="-8" inkscape:window-y="-8" inkscape:zoom="0.90877249" pagecolor="#ffffff" showborder="true" showgrid="false" showguides="true" units="cm">
	</sodipodi:namedview>
<g id="layer1" transform="translate(11.277005,-303.90632)" inkscape:groupmode="layer" inkscape:label="Layer 1">
	<g id="g12263" transform="matrix(0.93207455,0,0,0.93207455,93.639349,14.311776)">
		
			<linearGradient id="rect11365_1_" gradientUnits="userSpaceOnUse" x1="-54.0445" y1="121.1831" x2="-54.0445" y2="36.5016" gradientTransform="matrix(0.9321 0 0 -0.9321 121.8234 611.0515)">
			<stop  offset="0" style="stop-color:#FFBD1F"/>
			<stop  offset="1" style="stop-color:#8D6500"/>
		</linearGradient>
		<path id="rect11365" inkscape:connector-curvature="0" sodipodi:nodetypes="cccc" class="st0" d="M109.8,498.2V589H33.1v-90.9"/>
		
			<linearGradient id="rect11365-3_1_" gradientUnits="userSpaceOnUse" x1="37.4181" y1="73.172" x2="108.976" y2="73.172" gradientTransform="matrix(0.9321 0 0 -0.9321 121.8234 611.0515)">
			<stop  offset="0" style="stop-color:#AD8533"/>
			<stop  offset="1" style="stop-color:#AD8533"/>
		</linearGradient>
		<path id="rect11365-3" inkscape:connector-curvature="0" sodipodi:nodetypes="cccc" class="st1" d="M233.5,497.4v90.9h-76.8v-90.9
			"/>
		
			<linearGradient id="path12156_1_" gradientUnits="userSpaceOnUse" x1="286.647" y1="121.9397" x2="286.647" y2="37.2582" gradientTransform="matrix(0.9321 0 0 -0.9321 121.8234 611.0515)">
			<stop  offset="0.6054" style="stop-color:#FFB533"/>
			<stop  offset="0.6071" style="stop-color:#FEB533"/>
			<stop  offset="0.7066" style="stop-color:#E29D1D"/>
			<stop  offset="0.8059" style="stop-color:#CD8C0D"/>
			<stop  offset="0.9041" style="stop-color:#C18103"/>
			<stop  offset="1" style="stop-color:#BD7E00"/>
		</linearGradient>
		<path id="path12156" inkscape:connector-curvature="0" sodipodi:nodetypes="ccccc" class="st2" d="M427.4,497.4v60.8l-38.4,30
			l-38.4-30.1v-60.8"/>
		
			<linearGradient id="path12162_1_" gradientUnits="userSpaceOnUse" x1="790.0399" y1="281.4707" x2="790.0399" y2="196.7892" gradientTransform="matrix(0.9321 0 0 -0.9321 121.8234 611.0515)">
			<stop  offset="0.4482" style="stop-color:#289AF9"/>
			<stop  offset="1" style="stop-color:#D97900"/>
		</linearGradient>
		<path id="path12162" inkscape:connector-curvature="0" sodipodi:nodetypes="ccccc" class="st3" d="M896.6,348.7v60.8l-38.4,30.1
			l-38.4-30.1v-60.8"/>
		
			<linearGradient id="path12166_1_" gradientUnits="userSpaceOnUse" x1="790.0399" y1="105.09" x2="790.0399" y2="20.4085" gradientTransform="matrix(0.9321 0 0 -0.9321 121.8234 611.0515)">
			<stop  offset="0.4482" style="stop-color:#289AF9"/>
			<stop  offset="1" style="stop-color:#D97900"/>
		</linearGradient>
		<path id="path12166" inkscape:connector-curvature="0" sodipodi:nodetypes="ccccc" class="st4" d="M896.6,513.1v60.8L858.2,604
			l-38.4-30.1v-60.8"/>
		<path id="rect12188" inkscape:connector-curvature="0" sodipodi:nodetypes="cccccc" class="st5" d="M943.5,362.8h48.9l11.7,9.2
			l-11.7,9.2h-48.9V362.8z"/>
		<path id="path12209" inkscape:connector-curvature="0" sodipodi:nodetypes="cccccc" class="st5" d="M943.5,526.7h48.9l11.7,9.2
			l-11.7,9.2h-48.9V526.7z"/>
		<path id="rect12188-2" inkscape:connector-curvature="0" sodipodi:nodetypes="cccccc" class="st6" d="M-74.5,524.9h48.9l11.7,9.2
			l-11.7,9.2h-48.9V524.9z"/>
		<path id="path12261" inkscape:connector-curvature="0" sodipodi:nodetypes="cccccc" class="st7" d="M482.1,385.2H531l11.7,9.2
			l-11.7,9.2h-48.9V385.2z"/>
		<path id="path12160" inkscape:connector-curvature="0" sodipodi:nodetypes="cccc" class="st6" d="M619.7,348.7v90.9h-37.3v-90.9"
			/>
		<path id="path12303" inkscape:connector-curvature="0" sodipodi:nodetypes="cccc" class="st6" d="M656.9,348.7v90.9h-37.3v-90.9"
			/>
		<path id="path12305" inkscape:connector-curvature="0" sodipodi:nodetypes="cccc" class="st8" d="M694.2,348.7v90.9h-37.3v-90.9"
			/>
		<path id="path12307" inkscape:connector-curvature="0" sodipodi:nodetypes="cccc" class="st8" d="M731.4,348.7v90.9h-37.3v-90.9"
			/>
		<path id="path12309" inkscape:connector-curvature="0" sodipodi:nodetypes="cccc" class="st8" d="M768.7,349v90.9h-37.3V349"/>
		<path id="path12323" inkscape:connector-curvature="0" sodipodi:nodetypes="cccc" class="st6" d="M619.7,513.1V604h-37.3v-90.9"/>
		<path id="path12325" inkscape:connector-curvature="0" sodipodi:nodetypes="cccc" class="st6" d="M656.9,513.1V604h-37.3v-90.9"/>
		<path id="path12327" inkscape:connector-curvature="0" sodipodi:nodetypes="cccc" class="st8" d="M694.2,513.1V604h-37.3v-90.9"/>
		<path id="path12329" inkscape:connector-curvature="0" sodipodi:nodetypes="cccc" class="st8" d="M731.4,513.1V604h-37.3v-90.9"/>
		<path id="path12331" inkscape:connector-curvature="0" sodipodi:nodetypes="cccc" class="st8" d="M768.7,513.1V604h-37.3v-90.9"/>
		<path id="path12209-8" inkscape:connector-curvature="0" sodipodi:nodetypes="cccccc" class="st6" d="M835.7,467.3h-48.9
			l-11.7,9.2l11.7,9.2h48.9V467.3z"/>
		<path id="path12369" inkscape:connector-curvature="0" sodipodi:nodetypes="cccccc" class="st6" d="M835.7,632.5h-48.9l-11.7,9.2
			l11.7,9.2h48.9V632.5z"/>
		
			<linearGradient id="path12371_1_" gradientUnits="userSpaceOnUse" x1="153.2887" y1="82.0232" x2="209.8429" y2="82.0232" gradientTransform="matrix(0.9321 0 0 -0.9321 121.8234 611.0515)">
			<stop  offset="0" style="stop-color:#AD8533"/>
			<stop  offset="1" style="stop-color:#AD8533"/>
		</linearGradient>
		<path id="path12371" inkscape:connector-curvature="0" sodipodi:nodetypes="cccccc" class="st9" d="M264.7,525.4h48.9l11.7,9.2
			l-11.7,9.2h-48.9V525.4z"/>
		<line class="st10" x1="-13.9" y1="534.3" x2="33.1" y2="534.3"/>
		<line class="st10" x1="109.8" y1="534" x2="156.8" y2="534"/>
		<line class="st10" x1="233.5" y1="534.3" x2="264.7" y2="534.3"/>
		<line class="st10" x1="325.4" y1="534.3" x2="350.7" y2="534.3"/>
		<path id="path12261_1_" inkscape:connector-curvature="0" sodipodi:nodetypes="cccccc" class="st7" d="M482.1,549.3H531l11.7,9.2
			l-11.7,9.2h-48.9V549.3z"/>
		<polyline class="st11" points="482.1,394.4 464.8,394.4 464.8,454.1 464.8,558.5 482.1,558.5 		"/>
		<path id="path12209-8_1_" inkscape:connector-curvature="0" sodipodi:nodetypes="cccccc" class="st8" d="M743.1,445h-48.9
			l-11.7,9.2l11.7,9.2h48.9V445z"/>
		<path id="path12209-8_2_" inkscape:connector-curvature="0" sodipodi:nodetypes="cccccc" class="st8" d="M743.1,609.1h-48.9
			l-11.7,9.2l11.7,9.2h48.9V609.1z"/>
	</g>
</g>
<line class="st12" x1="503.3" y1="194.7" x2="538.2" y2="194.7"/>
<line class="st13" x1="610.8" y1="78" x2="647.7" y2="78"/>
<line class="st13" x1="610.8" y1="231" x2="647.7" y2="231"/>
<line class="st13" x1="821.4" y1="69.5" x2="869" y2="69.5"/>
<line class="st13" x1="940.6" y1="57.1" x2="984.3" y2="57.1"/>
<line class="st13" x1="940.6" y1="209.9" x2="984.3" y2="209.9"/>
<line class="st13" x1="821.4" y1="231" x2="869" y2="231"/>
<polyline class="st13" points="904.8,273.3 904.8,308.5 883.8,308.5 "/>
<polyline class="st13" points="904.8,120.1 904.8,154.5 883.8,154.5 "/>
<polyline class="st13" points="827.3,154.5 665.1,154.5 665.1,120.1 "/>
<polyline class="st13" points="827.3,308.5 665.1,308.5 665.1,273.3 "/>
<polyline class="st13" points="804,120.1 804,134.2 797.5,133.7 "/>
<polyline class="st13" points="741,133.7 734.5,134.2 734.5,120.1 "/>
<polyline class="st13" points="804,273.3 804,286.7 797.5,286.7 "/>
<polyline class="st13" points="741,286.7 734.5,286.7 734.5,273.3 "/>
<text transform="matrix(1 0 0 1 206.8138 94.283)"><tspan x="0" y="0" class="st14 st15">AvN</tspan><tspan x="0" y="48" class="st14 st15">Performance </tspan></text>
<g id="layer1_1_" inkscape:groupmode="layer" inkscape:label="Calque 1">
	
		<path id="path3051" inkscape:connector-curvature="0" sodipodi:nodetypes="cscccssccccccscccccccscscscscssscccssssscccssscscscccccscccsssccscssscsccscccc" class="st16" d="
		M123.2,131.6c0.1-0.2,2.1-6,4.5-12.8l4.4-12.4l4.5,0l4.5,0l-0.2,0.6c-0.1,0.3-2.1,6.1-4.5,12.8l-4.3,12.2l-4.5,0l-4.5,0
		L123.2,131.6z M133,131.8c0.5-0.5,12.4-10.9,12.4-10.9c0,0-0.8,2.5-1.9,5.6l-1.9,5.5l-4.4,0l-4.4,0L133,131.8L133,131.8z
		 M142.6,131.9c0-0.1,12.3-21.1,12.3-21c0,0-0.3,2.3-0.8,5.1c-0.4,2.7-0.8,5-0.7,5c0,0,0.6,0,1.2,0l1.1,0l1.2-7.3
		c0.6-4,1.2-7.3,1.2-7.3c0,0,2,0,4.5,0l4.5,0l-2,12.8c-1.1,7-2,12.8-2,12.8c0,0-2,0-4.5,0h-4.5l0.7-4.4l0.7-4.4h-1.2
		c-0.6,0-1.2,0-1.2,0c0,0-0.3,2-0.7,4.4c-0.4,2.4-0.7,4.4-0.7,4.4s-2,0-4.5,0C144.7,131.9,142.6,131.9,142.6,131.9L142.6,131.9z
		 M168.6,131.8c-1.8-0.3-3.1-1.6-3.5-3.3c-0.2-0.7-0.1-2.1,0.1-2.9c0.1-0.3,1.6-4.8,3.4-9.9l3.3-9.4l4.5,0c3.6,0,4.5,0,4.5,0.1
		c0,0-2,5.8-4.5,12.8l-4.5,12.7l-1.4,0C169.6,131.9,168.9,131.9,168.6,131.8L168.6,131.8z M173.5,131.9c0,0,2-5.8,4.5-12.8l4.5-12.7
		l4.5,0c4.2,0,4.5,0,4.5,0.1c-0.1,0.4-6.6,18.7-6.7,19.2c-1,2.4-3.3,4.7-5.8,5.7c-1.3,0.5-1.8,0.6-3.7,0.6
		C174,132,173.5,131.9,173.5,131.9L173.5,131.9z M139,121.6c-0.9-1.5-1.6-2.7-1.6-2.7c0.1-0.1,6.9-5.3,6.9-5.4c0,0-0.5,1.7-1.3,3.8
		c-0.7,2.1-1.6,4.6-1.9,5.4c-0.3,0.9-0.6,1.6-0.6,1.6C140.6,124.3,139.9,123,139,121.6L139,121.6z M144.4,111.4l-2.6-5l4.3,0
		c2.4,0,4.3,0,4.4,0c0,0-3.5,10-3.5,10C147,116.4,145.8,114.1,144.4,111.4L144.4,111.4z"/>
	
		<path id="path3053" inkscape:connector-curvature="0" sodipodi:nodetypes="cscccsscccscccccsssssccccssssccccssscccsssccccccccccccccccccccccccssscccccssssccccccccccccccccccccccccsscscccs" d="
		M70.4,132.2c-1.9-0.3-3.7-1.3-4.8-2.9c-0.4-0.5-0.9-1.5-1.1-2.1c-0.3-1-0.3-1.2-0.3-3.5c0-2.2,0-2.2,0.2-2.9
		c0.3-1.3,0.9-2.3,1.8-3.2c1.4-1.4,3.3-2.3,5.3-2.3H72v8.4v8.4l-0.6,0C71.1,132.3,70.7,132.2,70.4,132.2L70.4,132.2z M73.4,123.9
		v-8.5h0.4c2,0,3.9,0.9,5.1,2.1c0.7,0.6,1.1,1.2,1.5,2c0.7,1.4,0.8,2.2,0.8,4.9c0,1.6-0.1,2-0.2,2.4c-0.4,1.8-1.6,3.3-3,4.3
		c-1.2,0.8-2.3,1.1-3.7,1.2l-0.8,0V123.9L73.4,123.9z M104.8,132.2c-3-0.6-5.5-3.4-6-7c-0.1-1-0.1-2.8,0.1-3.6
		c0.3-1.2,0.8-2.5,1.4-3.4c0.5-0.7,1.4-1.6,2.1-2.1c0.9-0.6,2-1,3-1.1l0.5,0l0,7.8l0,7.8l0.8,0c1.3,0,2.6-0.3,3.8-1
		c1.2-0.7,2.5-2.2,3.1-3.5l0.2-0.5l0,1.5l0,1.5l-0.4,0.5c-0.7,1-1.8,1.9-2.9,2.4c-0.6,0.3-1.6,0.6-2.3,0.7
		C107.3,132.3,105.5,132.3,104.8,132.2L104.8,132.2z M40.9,123.8v-8.2h3.3h3.3v8.2v8.2h-3.3h-3.3V123.8z M48.9,123.8v-8.2h3.2h3.2
		v8.2v8.2h-3.2h-3.2V123.8z M56.8,123.8v-8.2l2,0l2,0l0.5,0.3c0.6,0.3,1.2,0.8,1.5,1.4c0.4,0.8,0.4,0.5,0.4,7.9v6.8h-3.2h-3.2
		L56.8,123.8z M87.8,131.8c-2.8-0.6-5-2.8-5.6-5.7c-0.1-0.6-0.1-4.5,0-5.2c0.3-1.5,1.1-2.9,2.1-3.9c1.4-1.3,3.1-2,4.9-2h0.6v8.4v8.4
		l-0.7,0C88.7,131.9,88.1,131.9,87.8,131.8L87.8,131.8z M91.2,120.4v-11.6h3.2h3.2v11.6v11.6h-3.2h-3.2V120.4z M114.7,120.4v-11.6
		h3.3h3.3v11.6v11.6H118h-3.3V120.4z M107.3,119.1c0-2.3,0-4.2,0.1-4.2c0,0,0.3,0,0.6,0.1c3.1,0.4,5.6,3.7,5.8,7.7l0,0.7h-3.3h-3.3
		V119.1z"/>
	<g>
		<defs>
			<rect id="SVGID_1_" x="18.2" y="43.2" width="195.9" height="105.8"/>
		</defs>
		<clipPath id="SVGID_2_">
			<use xlink:href="#SVGID_1_"  style="overflow:visible;"/>
		</clipPath>
		
			<path id="path3055" inkscape:connector-curvature="0" inkscape:export-xdpi="90" inkscape:export-ydpi="90" sodipodi:nodetypes="csssssssssssssssssssssscssssssscsscsssssscccscscssssssssscssssssssssscsssssssssscssssccssscccccccccscscscsccsccccccccccscssscssssscccssscccccscssccscccscssscsscscccscscscsscsccccssscsscscccscssscsscssssssssccccscsssccccccscccccccssccc" class="st17" d="
			M46.3,155.9c-3.3-0.2-6.2-0.6-9.2-1.4c-1.8-0.4-2.4-0.6-2.6-0.8c-0.6-0.5-0.5-1.5,0.2-1.8c0.4-0.2,0.6-0.2,2,0.2
			c3.8,1,6.6,1.5,10.9,1.6c3.2,0.1,6.6,0,9.4-0.4c2.1-0.3,3.7-0.7,7.6-1.7c4.2-1.2,6.8-1.5,11.7-1.5c5.2,0,7.7,0.3,12.7,1.7
			c3,0.8,4.7,1.2,6.7,1.5c4.5,0.6,10.5,0.6,14.9,0c2-0.3,3.6-0.7,6.4-1.4c4.4-1.2,6.5-1.6,10.7-1.7c3.3-0.1,6.8,0.1,9.5,0.5
			c1.5,0.3,2.4,0.5,5.4,1.3c5.4,1.5,8.3,1.9,13.8,1.9c5.7,0,8.6-0.4,15.1-2.2c3.3-0.9,5.6-1.3,9.3-1.4c3.9-0.2,7.8,0.1,10.9,0.7
			c1.3,0.3,2.1,0.5,5,1.3c2.3,0.6,3.8,1,6.6,1.4c0.4,0.1,0.8,0.5,0.9,0.8c0.1,0.6-0.2,1.1-0.7,1.3c-0.3,0.1-0.5,0.1-2.4-0.2
			c-1.6-0.3-3.2-0.6-5.2-1.2c-5.4-1.5-7.8-1.9-12.7-1.9c-4.7,0-7.2,0.4-11.8,1.6c-6.1,1.7-9.3,2.1-15.7,2c-5.4-0.1-8.1-0.5-13.3-1.9
			c-4.3-1.2-5.5-1.4-8.5-1.7c-1.3-0.1-6.6-0.1-8,0c-2.9,0.3-4.4,0.5-8.1,1.6c-4.4,1.2-6.9,1.7-10.9,1.9c-1.4,0.1-5.9,0.1-7.4,0
			c-3.9-0.2-6.6-0.7-11.2-2c-3-0.8-4.5-1.2-6.6-1.4c-3.1-0.3-7.3-0.3-10.4,0c-2.1,0.2-3.4,0.5-6.8,1.4c-3.3,0.9-5,1.3-7.3,1.6
			c-2.3,0.3-3.2,0.4-6.8,0.4C48.3,155.9,46.6,155.9,46.3,155.9L46.3,155.9z M46,148.1c-3-0.2-5.1-0.6-8.8-1.6
			c-3-0.8-4.6-1.2-6.7-1.5c-0.6-0.1-1.1-0.2-1.2-0.2c-0.7-0.4-0.7-1.5,0-1.9c0.3-0.1,0.3-0.2,0.8-0.1c1.6,0.1,4.1,0.7,7.4,1.6
			c2.8,0.8,3.9,1,5.3,1.2c2.5,0.4,5.8,0.6,8.9,0.4c3.8-0.2,5.6-0.4,9.2-1.4c3.8-1.1,5.5-1.4,7.7-1.8c3-0.4,6.5-0.6,9.9-0.5
			c4.9,0.2,7.6,0.6,12.7,2c4.1,1.2,5.9,1.5,9.9,1.6c1.5,0.1,2.4,0.1,4,0c3.8-0.2,5.6-0.4,9.2-1.4c4-1.1,5.5-1.4,7.8-1.8
			c4.7-0.7,10.8-0.7,15.5,0c2.3,0.3,3.9,0.7,7.7,1.7c3.6,1,5.4,1.3,9.3,1.4c1.5,0.1,2.4,0.1,4,0c4.1-0.2,5.7-0.4,10.4-1.7
			c2.8-0.8,4.7-1.2,6.8-1.5c5-0.7,11.5-0.6,16.2,0.2c2,0.3,5.5,1.2,6.2,1.5c0.4,0.2,0.6,0.5,0.6,1c0,0.5-0.2,0.8-0.6,1
			c-0.4,0.2-0.5,0.2-1.5-0.1c-2.1-0.6-4.1-1-5.9-1.3c-4.5-0.7-10.5-0.7-15,0c-1.9,0.3-3.5,0.6-6.4,1.4c-5.6,1.5-7.8,1.8-13.6,1.8
			c-4.8-0.1-6.9-0.4-11.3-1.6c-5.1-1.4-7.3-1.8-11.6-2c-1.7-0.1-5.8,0-7.3,0.1c-3.4,0.3-5.8,0.7-10.2,2c-4.8,1.3-7.4,1.7-13,1.6
			c-4.9-0.1-6.9-0.3-11.8-1.7c-5-1.4-7.9-1.8-12.9-1.9c-4.3-0.1-7.4,0.2-10.9,0.9c-1.3,0.3-2.2,0.5-5.1,1.3
			c-3.2,0.9-5.2,1.2-8.2,1.4C52,148.2,47.2,148.2,46,148.1L46,148.1z M43.3,140.3c-0.2-0.2-0.2-0.3-0.2-0.6c0-0.3,0-0.4,0.2-0.6
			l0.2-0.2h5.7h5.7l2.4-2.4l2.4-2.4h1.1h1.1l-0.1,0.2c-0.1,0.2-5.9,6-6.1,6.1c-0.2,0.1-1.1,0.1-6.2,0.1h-6L43.3,140.3z M190,140.4
			c-0.1-0.1-1.1-1.6-3.1-5l-2.9-4.9l0.3-0.4c0.2-0.2,0.4-0.5,0.6-0.7l0.3-0.3l3.1,5.1c3,5,3.1,5.1,3.1,5.5c0,0.3,0,0.4-0.2,0.6
			C190.7,140.6,190.3,140.6,190,140.4L190,140.4z M64.4,115.6l-0.4-0.5l2.3-3.8l2.3-3.8v-3.7v-3.7l0.2-0.2c0.2-0.2,0.8-0.4,3.7-1.5
			L76,97h1.6c1.7,0,1.8,0,2,0.4c0.1,0.2,0.1,0.9,0.1,5.1v4.9l2.3,2.3c1.3,1.3,2.3,2.3,2.3,2.3c0,0,0.3-1.7,0.7-3.8
			c0.6-3.3,0.8-3.8,0.9-3.9c0.1-0.1,1.6-0.9,3.4-1.8l3.3-1.6V90.7V80.3l0.2-0.2c0.1-0.1,1.2-0.6,2.6-1.3c1.3-0.6,2.4-1.2,2.5-1.2
			l0.2-0.1V73v-4.4l2.9-4.9l2.9-4.9l0.7-5c0.4-2.8,0.7-5.1,0.8-5.3c0.1-0.3,0.4-0.5,0.8-0.5c0.6,0,0.5-0.2,2.4,5.4
			c1.5,4.4,1.7,5,1.8,5c0.4,0.1,13.8,1.6,13.8,1.5c0,0,0.5-1.6,1-3.4s1-3.5,1.1-3.6c0.1-0.3,0.4-0.6,0.7-0.6
			c0.3-0.1,0.7,0.1,0.8,0.3c0.1,0.1,0.6,2.2,1.1,4.7l1,4.5l1.1,7c0.6,3.8,1.1,7,1.1,7c0,0,0.6,0.3,1.4,0.7c0.9,0.5,1.4,0.6,1.4,0.6
			c0,0,0.5-1.7,1-3.7c0.6-2.3,1.1-3.7,1.1-3.8c0.2-0.2,0.5-0.3,0.8-0.3c0.5,0.1,0.5,0.1,1.6,4.1l1,3.7l0,9.4l0,9.4l1.2,1.2
			c1.2,1.2,1.2,1.2,1.3,1c0.1-0.1,0.8-1.5,1.7-3l1.6-2.9L147,89c0.4-1.7,0.7-3.2,0.8-3.3c0.1-0.3,0.5-0.5,0.9-0.4
			c0.5,0.1,0.5,0.1,1.6,3.6l1,3.2l2.8,5.9c1.6,3.2,2.9,5.9,2.9,6c0,0.1-0.1,0.1-0.4,0.1c-2.2,1.9-2.6-2.3-4-5.2l-3-6.2l-0.5-1.7
			c-0.3-0.9-0.5-1.7-0.6-1.6c0,0-0.2,0.8-0.4,1.7l-0.4,1.7l-2,3.6c-1.1,2-2.1,3.7-2.2,3.8c-0.2,0.2-0.6,0.3-0.9,0.1
			c-0.1-0.1-1-0.9-2-1.9l-1.8-1.8V87v-9.5l-0.6-2c-0.3-1.1-0.6-2.1-0.6-2.1c0,0-0.4,1.1-0.8,2.5c-0.4,1.4-0.8,2.7-0.8,2.9
			c-0.1,0.3-0.4,0.4-0.7,0.4c-0.3,0-4.5-2.1-4.7-2.3c-0.1-0.1-0.5-2.4-1.3-7.4c-1.1-6.7-1.2-7.4-1.8-10.1c-0.4-1.6-0.7-2.8-0.7-2.8
			c0,0-0.4,1.1-0.7,2.4c-0.7,2.4-0.8,2.6-1.2,2.7c-0.2,0-15.5-1.7-15.7-1.7c-0.3-0.1-0.5-0.5-1.6-3.9c-0.6-1.9-1.2-3.4-1.2-3.4
			s-0.2,1.5-0.5,3.3c-0.2,1.8-0.5,3.3-0.5,3.5c0,0.1-1.3,2.4-2.9,5l-2.8,4.8v4.6v4.6l-0.2,0.2c-0.1,0.1-1,0.6-2.7,1.4l-2.5,1.2
			l0,10.3c0,10,0,10.4-0.1,10.5c-0.1,0.1-1.2,0.7-3.5,1.9l-3.3,1.7l-0.8,4.4l-0.8,4.4l-0.2,0.2c-0.3,0.2-0.7,0.3-1,0.1
			c-0.3-0.2-6.3-6.2-6.4-6.4c0-0.1-0.1-1.8-0.1-4.9v-4.7h-0.7h-0.7l-3.1,1.2l-3.1,1.2l0,3.4c0,1.9,0,3.5-0.1,3.6
			c-0.1,0.3-4,6.7-4.2,7c-0.1,0.1-0.4,0.4-0.7,0.6l-0.5,0.4L64.4,115.6L64.4,115.6z"/>
	</g>
</g>
</svg>
