<?xml version="1.0" encoding="UTF-8" standalone="no"?>
<!-- Created with Inkscape (http://www.inkscape.org/) -->

<svg
   xmlns:dc="http://purl.org/dc/elements/1.1/"
   xmlns:cc="http://creativecommons.org/ns#"
   xmlns:rdf="http://www.w3.org/1999/02/22-rdf-syntax-ns#"
   xmlns:svg="http://www.w3.org/2000/svg"
   xmlns="http://www.w3.org/2000/svg"
   xmlns:sodipodi="http://sodipodi.sourceforge.net/DTD/sodipodi-0.dtd"
   xmlns:inkscape="http://www.inkscape.org/namespaces/inkscape"
   width="1076.3077"
   height="335.33615"
   id="svg11357"
   version="1.1"
   inkscape:version="0.48.4 r9939"
   sodipodi:docname="flowsheetPilEAUte.svg">
  <defs
     id="defs11359">
    <linearGradient
       id="linearGradient12176">
      <stop
         style="stop-color:#cccccc;stop-opacity:1;"
         offset="0"
         id="stop12178" />
      <stop
         style="stop-color:#f1f1f1;stop-opacity:1;"
         offset="1"
         id="stop12180" />
    </linearGradient>
  </defs>
  <sodipodi:namedview
     id="base"
     pagecolor="#ffffff"
     bordercolor="#666666"
     borderopacity="1.0"
     inkscape:pageopacity="0.0"
     inkscape:pageshadow="2"
     inkscape:zoom="0.90877249"
     inkscape:cx="476.53276"
     inkscape:cy="33.448164"
     inkscape:document-units="px"
     inkscape:current-layer="g12263"
     showgrid="false"
     showborder="true"
     inkscape:window-width="1680"
     inkscape:window-height="987"
     inkscape:window-x="-8"
     inkscape:window-y="-8"
     inkscape:window-maximized="1"
     showguides="true"
     inkscape:guide-bbox="true"
     units="cm"
     fit-margin-left="1"
     fit-margin-top="1"
     fit-margin-right="1"
     fit-margin-bottom="1" />
  <metadata
     id="metadata11362">
    <rdf:RDF>
      <cc:Work
         rdf:about="">
        <dc:format>image/svg+xml</dc:format>
        <dc:type
           rdf:resource="http://purl.org/dc/dcmitype/StillImage" />
        <dc:title></dc:title>
      </cc:Work>
    </rdf:RDF>
  </metadata>
  <g
     inkscape:label="Layer 1"
     inkscape:groupmode="layer"
     id="layer1"
     transform="translate(11.277005,-303.90632)">
    <g
       id="g12263"
       transform="matrix(0.93207455,0,0,0.93207455,93.639349,14.311776)">
      <path
         sodipodi:nodetypes="ccccccccccccccccccccccccccccccccccc"
         inkscape:connector-curvature="0"
         id="path12233"
         d="m 87.231783,455.15305 83.237347,0 m 50.04055,0 52.39774,0 m 43.50351,0 47.63108,0 m 231.5379,-83.85042 -48.17374,0 0,82.88012 -26.03813,0 c -5.06249,0 26.03813,0 26.03813,0 l 0,80.83371 46.63832,0 m 163.42527,-163.97184 67.39925,0 m -67.39925,163.97184 66.37564,0 m 122.32164,-163.97184 -67.55839,0 m 2.04722,163.97184 67.5584,0 m -530.61725,-79.86341 72.92316,0 m 367.75317,-15.6445 0,19.40617 -57.2569,0 m -44.20289,0 -76.72222,0 0,-19.40617 m 178.18201,163.93332 0,19.76002 -63.84615,0 m -36.78999,0 -77.14913,0 0,-22.50446 m -695.797766,-146.24614 69.307137,0"
         style="color:#000000;fill:none;stroke:#999999;stroke-width:2.145751;marker:none;visibility:visible;display:inline;overflow:visible;enable-background:accumulate" />
      <path
         sodipodi:nodetypes="cccc"
         inkscape:connector-curvature="0"
         id="rect11365"
         d="m 109.83516,418.76394 0,90.8527 -76.772725,0 0,-90.8527"
         style="color:#000000;fill:#cccccc;fill-opacity:1;stroke:none;stroke-width:2;marker:none;visibility:visible;display:inline;overflow:visible;enable-background:accumulate" />
      <path
         sodipodi:nodetypes="cccc"
         inkscape:connector-curvature="0"
         id="rect11365-3"
         d="m 233.54165,418.0023 0,90.8527 -76.77271,0 0,-90.8527"
         style="color:#000000;fill:#cccccc;stroke:none;stroke-width:2;marker:none;visibility:visible;display:inline;overflow:visible;enable-background:accumulate" />
      <path
         style="color:#000000;fill:#cccccc;stroke:none;stroke-width:2;marker:none;visibility:visible;display:inline;overflow:visible;enable-background:accumulate"
         d="m 427.43257,418.0023 0,60.78165 -38.38636,30.07105 -38.38636,-30.07105 0,-60.78165"
         id="path12156"
         inkscape:connector-curvature="0"
         sodipodi:nodetypes="ccccc" />
      <path
         sodipodi:nodetypes="ccccc"
         inkscape:connector-curvature="0"
         id="path12162"
         d="m 896.5575,348.71418 0,60.78165 -38.38634,30.07105 -38.38636,-30.07105 0,-60.78165"
         style="color:#000000;fill:#cccccc;stroke:none;stroke-width:2;marker:none;visibility:visible;display:inline;overflow:visible;enable-background:accumulate" />
      <path
         style="color:#000000;fill:#cccccc;stroke:none;stroke-width:2;marker:none;visibility:visible;display:inline;overflow:visible;enable-background:accumulate"
         d="m 896.5575,513.05541 0,60.78165 -38.38634,30.07105 -38.38636,-30.07105 0,-60.78165"
         id="path12166"
         inkscape:connector-curvature="0"
         sodipodi:nodetypes="ccccc" />
      <path
         sodipodi:nodetypes="cccccc"
         inkscape:connector-curvature="0"
         id="rect12188"
         d="m 943.49125,362.78081 48.94836,0 11.72719,9.17423 -11.72719,9.17422 -48.94836,0 z"
         style="color:#000000;fill:#cccccc;fill-opacity:1;fill-rule:nonzero;stroke:none;stroke-width:2;marker:none;visibility:visible;display:inline;overflow:visible;enable-background:accumulate" />
      <path
         style="color:#000000;fill:#cccccc;fill-opacity:1;fill-rule:nonzero;stroke:none;stroke-width:2;marker:none;visibility:visible;display:inline;overflow:visible;enable-background:accumulate"
         d="m 943.49121,526.70889 48.94835,0 11.72724,9.17423 -11.72724,9.17422 -48.94835,0 z"
         id="path12209"
         inkscape:connector-curvature="0"
         sodipodi:nodetypes="cccccc" />
      <path
         sodipodi:nodetypes="cccccc"
         inkscape:connector-curvature="0"
         id="rect12188-2"
         d="m -74.546916,445.46723 48.948355,0 11.72723,9.17423 -11.72723,9.17422 -48.948355,0 z"
         style="color:#000000;fill:#cccccc;fill-opacity:1;fill-rule:nonzero;stroke:none;stroke-width:2;marker:none;visibility:visible;display:inline;overflow:visible;enable-background:accumulate" />
      <path
         style="color:#000000;fill:#cccccc;fill-opacity:1;fill-rule:nonzero;stroke:none;stroke-width:2;marker:none;visibility:visible;display:inline;overflow:visible;enable-background:accumulate"
         d="m 461.73365,444.95563 48.94835,0 11.72723,9.17423 -11.72723,9.17422 -48.94835,0 z"
         id="path12261"
         inkscape:connector-curvature="0"
         sodipodi:nodetypes="cccccc" />
      <path
         style="color:#000000;fill:#cccccc;stroke:none;stroke-width:2;marker:none;visibility:visible;display:inline;overflow:visible;enable-background:accumulate"
         d="m 620.20006,348.71418 0,90.8527 -37.33084,0 0,-90.8527"
         id="path12160"
         inkscape:connector-curvature="0"
         sodipodi:nodetypes="cccc" />
      <path
         sodipodi:nodetypes="cccc"
         inkscape:connector-curvature="0"
         id="path12303"
         d="m 659.59829,348.71418 0,90.8527 -37.33085,0 0,-90.8527"
         style="color:#000000;fill:#cccccc;stroke:none;stroke-width:2;marker:none;visibility:visible;display:inline;overflow:visible;enable-background:accumulate" />
      <path
         style="color:#000000;fill:#cccccc;stroke:none;stroke-width:2;marker:none;visibility:visible;display:inline;overflow:visible;enable-background:accumulate"
         d="m 698.9965,348.71418 0,90.8527 -37.33085,0 0,-90.8527"
         id="path12305"
         inkscape:connector-curvature="0"
         sodipodi:nodetypes="cccc" />
      <path
         sodipodi:nodetypes="cccc"
         inkscape:connector-curvature="0"
         id="path12307"
         d="m 738.39475,348.71418 0,90.8527 -37.33085,0 0,-90.8527"
         style="color:#000000;fill:#cccccc;stroke:none;stroke-width:2;marker:none;visibility:visible;display:inline;overflow:visible;enable-background:accumulate" />
      <path
         style="color:#000000;fill:#cccccc;stroke:none;stroke-width:2;marker:none;visibility:visible;display:inline;overflow:visible;enable-background:accumulate"
         d="m 777.79296,348.98863 0,90.85269 -37.33084,0 0,-90.85269"
         id="path12309"
         inkscape:connector-curvature="0"
         sodipodi:nodetypes="cccc" />
      <path
         sodipodi:nodetypes="cccc"
         inkscape:connector-curvature="0"
         id="path12323"
         d="m 620.20006,513.05541 0,90.8527 -37.33084,0 0,-90.8527"
         style="color:#000000;fill:#cccccc;stroke:none;stroke-width:2;marker:none;visibility:visible;display:inline;overflow:visible;enable-background:accumulate" />
      <path
         style="color:#000000;fill:#cccccc;stroke:none;stroke-width:2;marker:none;visibility:visible;display:inline;overflow:visible;enable-background:accumulate"
         d="m 659.59829,513.05541 0,90.8527 -37.33085,0 0,-90.8527"
         id="path12325"
         inkscape:connector-curvature="0"
         sodipodi:nodetypes="cccc" />
      <path
         sodipodi:nodetypes="cccc"
         inkscape:connector-curvature="0"
         id="path12327"
         d="m 698.9965,513.05541 0,90.8527 -37.33085,0 0,-90.8527"
         style="color:#000000;fill:#cccccc;stroke:none;stroke-width:2;marker:none;visibility:visible;display:inline;overflow:visible;enable-background:accumulate" />
      <path
         style="color:#000000;fill:#cccccc;stroke:none;stroke-width:2;marker:none;visibility:visible;display:inline;overflow:visible;enable-background:accumulate"
         d="m 738.39475,513.05541 0,90.8527 -37.33085,0 0,-90.8527"
         id="path12329"
         inkscape:connector-curvature="0"
         sodipodi:nodetypes="cccc" />
      <path
         sodipodi:nodetypes="cccc"
         inkscape:connector-curvature="0"
         id="path12331"
         d="m 777.79296,513.05541 0,90.8527 -37.33084,0 0,-90.8527"
         style="color:#000000;fill:#cccccc;stroke:none;stroke-width:2;marker:none;visibility:visible;display:inline;overflow:visible;enable-background:accumulate" />
      <path
         style="color:#000000;fill:#cccccc;fill-opacity:1;fill-rule:nonzero;stroke:none;stroke-width:2;marker:none;visibility:visible;display:inline;overflow:visible;enable-background:accumulate"
         d="m 803.49595,449.71682 -48.94836,0 -11.72719,9.17423 11.72719,9.17421 48.94836,0 z"
         id="path12209-8"
         inkscape:connector-curvature="0"
         sodipodi:nodetypes="cccccc" />
      <path
         sodipodi:nodetypes="cccccc"
         inkscape:connector-curvature="0"
         id="path12369"
         d="m 803.49595,614.10916 -48.94836,0 -11.72719,9.17423 11.72719,9.17421 48.94836,0 z"
         style="color:#000000;fill:#cccccc;fill-opacity:1;fill-rule:nonzero;stroke:none;stroke-width:2;marker:none;visibility:visible;display:inline;overflow:visible;enable-background:accumulate" />
      <path
         style="color:#000000;fill:#cccccc;fill-opacity:1;fill-rule:nonzero;stroke:none;stroke-width:2;marker:none;visibility:visible;display:inline;overflow:visible;enable-background:accumulate"
         d="m 264.69855,446.01611 48.94836,0 11.72723,9.17423 -11.72723,9.17422 -48.94836,0 z"
         id="path12371"
         inkscape:connector-curvature="0"
         sodipodi:nodetypes="cccccc" />
    </g>
  </g>
</svg>
